<svg version="1.0" xmlns="http://www.w3.org/2000/svg"
 width="1241pt" height="1170pt" viewBox="0 0 1241 1170">
<g transform="translate(0.000000,1170.000000) scale(0.100000,-0.100000)">
<path fill="#0058a2" d="M10010 9879 c-313 -32 -586 -127 -780 -272 -199 -149 -600 -532 -869
-832 -391 -434 -845 -1007 -1770 -2234 -609 -808 -750 -972 -824 -957 -48 10
-83 42 -121 114 -43 83 -70 181 -132 482 -54 264 -83 362 -123 417 -89 123
-206 142 -407 68 -173 -64 -249 -110 -350 -210 -74 -74 -98 -106 -132 -175
-64 -130 -77 -191 -76 -355 1 -146 37 -446 109 -914 73 -467 145 -688 281
-862 118 -149 291 -224 549 -236 274 -13 463 80 745 366 113 114 497 588 2319
2861 1201 1499 2188 2731 2194 2738 7 9 -46 12 -259 11 -148 -1 -307 -6 -354
-10z"/>
<path fill="#eb1f40" d="M4670 8784 c-276 -25 -516 -64 -725 -119 -1050 -275 -1751 -1013
-2029 -2137 -188 -758 -190 -1761 -5 -2515 83 -339 211 -659 368 -917 556
-917 1508 -1344 2871 -1286 656 27 1058 118 1490 338 l135 69 3 627 c1 345 -1
626 -5 624 -5 -2 -78 -39 -163 -81 -510 -255 -1064 -387 -1623 -387 -318 0
-560 48 -793 159 -509 243 -812 753 -908 1530 -50 402 -44 904 14 1294 128
846 507 1360 1139 1543 146 42 310 64 526 71 407 12 679 -28 1105 -163 128
-40 153 -46 161 -34 4 8 166 236 358 505 l351 490 -73 34 c-329 155 -816 282
-1289 337 -127 15 -795 28 -908 18z"/>
</g>
</svg>
