<svg aria-hidden="true" focusable="false" role="img" version="1.1" viewBox="0 0 6.46 7.03" xmlns="http://www.w3.org/2000/svg">
 <g transform="matrix(.265 0 0 .265 -.0735 -.00286)">
  <path d="m23.2 25.6c-0.355 0.25-0.77 0.384-1.2 0.388h-19c-1.24 0-2.2-0.964-2.2-2.2v-21c0-1.21 0.967-2.2 2.15-2.2h12.2c4.92 0 8.93 4.09 8.93 9.11 1.46e-4 3.21-1.32 5.83-3.73 7.42l-0.238 0.157 3.59 5.31c0.675 0.998 0.427 2.37-0.551 3.06zm-20.2-23.1c-0.154 0-0.281 0.129-0.281 0.289v21c0 0.165 0.133 0.289 0.332 0.289l18.9 3.3e-5c0.0545-8.39e-4 0.107-0.0181 0.153-0.0506 0.0626-0.044 0.104-0.109 0.118-0.186 0.0139-0.0769-0.0021-0.153-0.0454-0.217l-3.58-5.3c-0.237-0.351-0.361-0.704-0.374-1.07-0.0224-0.654 0.336-1.3 0.913-1.65 2.19-1.33 3.09-3.44 3.09-5.95 0-3.97-3.17-7.2-7.06-7.2zm18 14.9 3.27 4.84c0.847 1.25 0.536 2.97-0.693 3.84-0.447 0.314-0.97 0.483-1.51 0.488l-19 1.18e-4c-1.54 0-2.76-1.21-2.76-2.76v-21c0-1.52 1.21-2.76 2.71-2.76h12.2c5.23 0 9.49 4.34 9.49 9.67 1.49e-4 3.29-1.32 6.02-3.75 7.73zm-18-15.5c-0.462 0-0.837 0.382-0.837 0.852v21c0 0.486 0.391 0.852 0.887 0.852h18.9c0.169-0.0026 0.329-0.055 0.466-0.151 0.183-0.129 0.307-0.324 0.347-0.547 0.0402-0.223-0.0073-0.45-0.134-0.636l-3.58-5.3c-0.18-0.266-0.268-0.517-0.277-0.774-0.0153-0.446 0.237-0.899 0.644-1.15 2.37-1.44 3.36-3.74 3.36-6.43 0-4.28-3.42-7.76-7.62-7.76z" fill="#3b852a"/>
  <path d="m8.2 8.32c0-0.421 0.335-0.763 0.748-0.763h3.57c2.21 0 3.57 0.968 3.57 2.87v0.0689c0 1.76-1.29 2.87-3.54 2.87h-2.14l-2.21 2.25v-2.25h-0.00128v-5.04" fill="#84b818" fill-rule="evenodd"/>
 </g>
</svg>
