<svg viewBox="0 0 464 67" fill="none" xmlns="http://www.w3.org/2000/svg"><g clip-path="url(#a)"><path d="M165.073 67c-7.157 0-12.597-2.073-16.32-6.23-3.72-4.15-5.583-10.11-5.583-17.874 0-7.91 1.943-13.987 5.84-18.241 3.893-4.25 9.518-6.376 16.877-6.376 4.991 0 9.483 1.163 13.473 3.008l-5.697 6.715c-4.071-1.246-5.1-1.392-7.863-1.392-8.187 0-12.278 5.4-12.278 16.2 0 5.267 1.018 9.23 3.059 11.878 2.037 2.652 5.027 3.977 8.962 3.977 4.477 0 8.714-1.104 12.705-3.316v8.716a19.916 19.916 0 0 1-5.753 2.253c-2.037.457-4.512.682-7.422.682zM193.303 15.482c.383-.405.72-.702 1.085-1.066V0l-9.966 4.617V25.97c.316-.391.646-.806.949-1.177 3.504-4.32 6.145-7.424 7.932-9.31zM206.662 39.327l19.039-20.196h-11.589l-14.291 15.132-5.69 7.058h-.258l.515-9.055V29.74l-9.966 11.436V66.15h9.966V50.035l5.516-4.506 15.188 20.618H226.9l-20.238-26.82zM29.69 11.82c-5.878 0-10.498 2.07-13.863 6.21-3.361 4.136-5.044 9.847-5.044 17.13 0 7.625 1.617 13.391 4.853 17.303 3.24 3.907 7.922 5.863 14.054 5.863 2.652 0 5.221-.263 7.7-.786a90.01 90.01 0 0 0 7.741-2.021v8.715c-4.905 1.838-10.467 2.763-16.682 2.763-9.156 0-16.185-2.756-21.093-8.266C2.45 53.221 0 45.332 0 35.073c0-6.462 1.192-12.118 3.574-16.964 2.38-4.845 5.822-8.556 10.33-11.138 4.506-2.579 9.797-3.866 15.873-3.866 6.39 0 12.292 1.332 17.708 3.994l-3.678 8.46a54.856 54.856 0 0 0-6.695-2.614c-2.354-.75-4.825-1.125-7.422-1.125zM92.63 66.148H82.53V37.24c0-3.628-.73-6.334-2.2-8.12-1.47-1.786-3.8-2.676-6.994-2.676-4.22 0-7.324 1.253-9.306 3.763-1.985 2.509-2.975 6.711-2.975 12.606v23.339H51.003V4.617L61.055 0v16.79c0 2.694-.17 5.57-.515 8.633h.643c1.37-2.27 3.275-4.025 5.712-5.275 2.44-1.246 5.283-1.869 8.534-1.869 11.464 0 17.196 5.742 17.196 17.22v30.65h.004zM118.548 25.849c-3.195 0-5.753 1.007-7.675 3.018-1.926 2.014-3.073 4.946-3.445 8.802h21.476c-.06-3.883-1.002-6.822-2.823-8.823-1.825-1.997-4.338-2.997-7.533-2.997zM120.39 67c-7.359 0-13.112-2.132-17.262-6.4-4.15-4.264-6.223-10.138-6.223-17.618 0-7.684 1.923-13.717 5.774-18.11 3.852-4.392 9.143-6.59 15.872-6.59 6.247 0 11.18 1.883 14.806 5.656 3.622 3.77 5.433 8.954 5.433 15.559v5.4h-31.529c.146 4.561 1.383 8.071 3.723 10.522 2.339 2.45 5.631 3.675 9.883 3.675 2.794 0 5.398-.26 7.807-.785 2.413-.526 4.999-1.395 7.766-2.614v8.12c-2.451 1.16-4.936 1.984-7.443 2.465-2.516.478-5.384.72-8.607.72z" fill="#EB1F40"></path><path d="M243.899 59.001c3.647 0 6.58-1.014 8.788-3.039 2.211-2.028 3.313-4.87 3.313-8.525v-4.078l-6.07.253c-4.738.17-8.179.956-10.331 2.357-2.155 1.406-3.233 3.555-3.233 6.445 0 2.094.629 3.718 1.881 4.867 1.258 1.145 3.142 1.72 5.652 1.72zm14.972 6.801l-2.009-6.545h-.344c-2.281 2.863-4.579 4.808-6.887 5.843-2.311 1.038-5.28 1.554-8.899 1.554-4.651 0-8.277-1.246-10.887-3.742-2.611-2.495-3.914-6.019-3.914-10.584 0-4.846 1.814-8.505 5.433-10.97 3.622-2.464 9.139-3.81 16.553-4.038l8.173-.257v-2.509c0-3.004-.702-5.25-2.117-6.74-1.411-1.488-3.605-2.232-6.567-2.232a22.8 22.8 0 0 0-6.973 1.066 52.744 52.744 0 0 0-6.42 2.506l-3.25-7.14c2.565-1.333 5.374-2.343 8.426-3.043 3.052-.692 5.934-1.042 8.642-1.042 6.02 0 10.56 1.305 13.63 3.912 3.062 2.606 4.595 6.704 4.595 12.287V65.8h-7.185v.003z" fill="#EB1F40"></path><path d="M292.11 58.921c2.451 0 4.905-.38 7.356-1.145v7.521c-1.109.485-2.545.886-4.297 1.212a29.572 29.572 0 0 1-5.454.491c-9.528 0-14.291-4.991-14.291-14.967V26.697h-6.458v-4.42l6.928-3.655 3.424-9.945h6.201v10.457h13.474V26.7h-13.474v25.164c0 2.409.605 4.188 1.818 5.337 1.217 1.15 2.805 1.72 4.773 1.72zM326.966 18.282c2.026 0 3.691.139 5.005.426l-.984 9.308a19.163 19.163 0 0 0-4.452-.51c-4.019 0-7.28 1.306-9.776 3.912-2.492 2.606-3.743 5.995-3.743 10.162v24.572h-10.053V19.13h7.873l1.325 8.29h.514c1.571-2.807 3.612-5.029 6.139-6.677 2.527-1.64 5.242-2.46 8.152-2.46zM348.275 59.347c3.646 0 6.58-1.014 8.787-3.039 2.211-2.028 3.317-4.87 3.317-8.525v-4.077l-6.077.252c-4.738.17-8.179.956-10.331 2.357-2.155 1.406-3.233 3.555-3.233 6.445 0 2.094.629 3.718 1.881 4.867 1.265 1.145 3.146 1.72 5.656 1.72zm14.971 6.801l-2.009-6.545h-.344c-2.28 2.863-4.578 4.808-6.886 5.843-2.312 1.038-5.281 1.554-8.899 1.554-4.651 0-8.277-1.246-10.888-3.742-2.61-2.495-3.914-6.019-3.914-10.584 0-4.846 1.815-8.505 5.434-10.969 3.622-2.465 9.142-3.81 16.553-4.04l8.172-.255V34.9c0-3.004-.705-5.25-2.116-6.739-1.412-1.488-3.602-2.233-6.567-2.233-2.426 0-4.748.357-6.973 1.066a52.775 52.775 0 0 0-6.421 2.506l-3.25-7.14c2.566-1.333 5.374-2.343 8.43-3.043 3.048-.692 5.93-1.041 8.642-1.041 6.017 0 10.557 1.305 13.626 3.91 3.063 2.607 4.599 6.705 4.599 12.288v31.671h-7.189v.004zM396.239 58.921c4.137 0 7.143-1.152 9.028-3.464 1.88-2.309 2.85-6.058 2.909-11.243v-1.401c0-5.926-.97-10.135-2.909-12.624-1.94-2.495-4.978-3.745-9.112-3.745-3.538 0-6.26 1.426-8.172 4.275-1.908 2.849-2.868 6.909-2.868 12.18 0 5.216.928 9.19 2.781 11.92 1.856 2.735 4.634 4.102 8.343 4.102zM393.545 67c-5.906 0-10.512-2.125-13.818-6.376-3.306-4.254-4.964-10.217-4.964-17.898 0-7.708 1.676-13.71 5.027-18.005 3.347-4.293 7.991-6.442 13.925-6.442 6.216 0 10.95 2.281 14.204 6.843h.514c-.486-3.371-.726-6.033-.726-7.989V4.617L417.798 0v66.148h-7.873l-1.752-6.164h-.47C404.484 64.66 399.76 67 393.545 67zM443.765 25.849c-3.194 0-5.753 1.007-7.675 3.018-1.926 2.014-3.073 4.946-3.445 8.802h21.476c-.059-3.883-1.001-6.822-2.823-8.823-1.828-1.997-4.335-2.997-7.533-2.997zM445.604 67c-7.355 0-13.112-2.132-17.262-6.4-4.151-4.264-6.223-10.138-6.223-17.618 0-7.684 1.922-13.717 5.778-18.11 3.848-4.392 9.138-6.59 15.868-6.59 6.247 0 11.18 1.883 14.805 5.656 3.623 3.77 5.434 8.954 5.434 15.559v5.4h-31.529c.142 4.561 1.383 8.071 3.723 10.522 2.339 2.45 5.631 3.675 9.882 3.675 2.795 0 5.395-.26 7.808-.785 2.412-.526 4.999-1.395 7.766-2.614v8.12c-2.451 1.16-4.936 1.984-7.443 2.465-2.517.478-5.384.72-8.607.72zM165.421 33.27c-.219-.114-.949-.326-1.669-.083-3.782 1.27-5.099 3.624-4.748 6.985.601 5.749 1.543 8.092 1.943 9.362.49 1.544 2.433 3.392 4.46 3.392 1.55 0 3.799-.2 7.55-4.25L210.99 5.794c-.177.146.028.031-.024.028l.024-.028c-2.433-.135-6.052.135-7.689.44-1.634.311-2.945.945-4.12 1.613-3.323 1.896-29.836 33.097-30.545 33.097-1.227 0-1.536-3.105-1.828-5.182-.139-.983-.424-1.578-.709-1.914.003 0-.275-.367-.678-.578z" fill="#0058A2"></path></g><defs><clipPath id="a"><path fill="#fff" d="M0 0h464v67H0z"></path></clipPath></defs></svg>
